<svg enable-background="new 0 0 511.5 105.2" viewBox="0 0 511.5 105.2" xmlns="http://www.w3.org/2000/svg" xmlns:xlink="http://www.w3.org/1999/xlink"><linearGradient id="a" gradientTransform="matrix(1 0 0 -1 0 108)" gradientUnits="userSpaceOnUse" x1="26.6565" x2="95.5016" y1="93.0208" y2="33.6307"><stop offset="0" stop-color="#73cff2"/><stop offset=".5" stop-color="#22a6f9"/><stop offset="1" stop-color="#995de3"/></linearGradient><path d="m42.7 92.3h39.5c1.2 0 2.2-1 2.2-2.2v-2.1c0-1.2-1-2.2-2.2-2.2h-39.5c-1.2 0-2.2 1-2.2 2.2v2.1c0 1.2 1 2.2 2.2 2.2z" fill="#fff"/><path d="m104 78.7h-83.1c-3.9 0-7.1-3.2-7.1-7.1v-51.5c0-3.9 3.2-7.1 7.1-7.1h83.1c3.9 0 7.1 3.2 7.1 7.1v51.5c.1 3.9-3.1 7.1-7.1 7.1z" fill="#fff"/><path d="m104 36.3v-13.3c0-1.6-1.3-2.8-2.8-2.8h-21.7-2.4-53.3c-1.6 0-2.8 1.3-2.8 2.8v13.2c4.8.7 8.4 4.7 8.4 9.7 0 4.9-3.7 9-8.4 9.7v13.2c0 1.6 1.3 2.8 2.8 2.8h53.3 2.4 21.7c1.6 0 2.8-1.3 2.8-2.8v-13.4c-4.4-1-7.6-4.9-7.6-9.5 0-4.8 3.3-8.6 7.6-9.6z" fill="url(#a)"/><g fill="#fff"><path d="m79.5 20.1h4.9v8h-4.9z"/><path d="m79.5 34.6h4.9v8h-4.9z"/><path d="m79.5 49h4.9v8h-4.9z"/><path d="m79.5 63.5h4.9v8h-4.9z"/><path d="m153.8 30v29.1h13.7v6.8h-20.7v-35.9z"/><path d="m192.5 62.7c-2.6 2.6-5.8 3.9-9.6 3.9s-7-1.3-9.6-3.9-3.9-5.8-3.9-9.6 1.3-7 3.9-9.6 5.8-3.9 9.6-3.9 7 1.3 9.6 3.9 3.9 5.8 3.9 9.6c0 3.7-1.3 6.9-3.9 9.6zm-14.6-4.6c1.3 1.3 3 2 5 2s3.6-.7 5-2 2-3 2-5.1-.7-3.7-2-5.1-3-2-5-2-3.6.7-5 2c-1.3 1.4-1.9 3.1-1.9 5.1s.6 3.7 1.9 5.1z"/><path d="m217.6 40.2v6.3h-8.2v10.6c0 .9.2 1.5.7 1.9s1.1.6 1.9.7c.9.1 1.9 0 3.2 0v6c-4.5.5-7.7.1-9.5-1.3-1.9-1.3-2.8-3.8-2.8-7.3v-10.5h-4.5v-6.3h4.5v-7.2h6.6v7.2z"/><path d="m233.5 40.2v6.3h-5.8v10.6c0 .9.2 1.5.7 1.9s1.1.6 1.9.7c.9.1 1.9 0 3.2 0v6c-4.5.5-7.7.1-9.5-1.3-1.9-1.3-2.8-3.8-2.8-7.3v-10.5h-4.5v-6.3h4.5v-7.2h6.6v7.2z"/><path d="m262.2 55.7h-19.3c.9 3.2 3.3 4.8 7.2 4.8 2.5 0 4.4-.9 5.7-2.6l5.3 3.1c-2.5 3.7-6.2 5.5-11.2 5.5-4.2 0-7.6-1.3-10.2-3.8-2.6-2.6-3.8-5.8-3.8-9.7 0-3.8 1.3-7 3.8-9.6s5.7-3.9 9.7-3.9c3.8 0 6.9 1.3 9.3 3.9 2.5 2.6 3.7 5.8 3.7 9.6.1.8 0 1.7-.2 2.7zm-19.4-5.1h13.1c-.4-1.7-1.1-3-2.3-3.8-1.1-.9-2.5-1.3-4.1-1.3-1.8 0-3.2.5-4.4 1.4-1.1.8-1.9 2.1-2.3 3.7z"/><path d="m273.7 40.2v4.4c.6-1.6 1.6-2.8 3-3.7 1.4-.8 3-1.3 4.8-1.3v7.4c-2-.3-3.8.1-5.4 1.2s-2.4 2.8-2.4 5.3v12.2h-6.6v-25.5z"/><path d="m325.9 30h14.2c4.9 0 9 1.7 12.3 5.2 3.3 3.4 5 7.7 5 12.7 0 5.1-1.7 9.3-5 12.7s-7.4 5.2-12.3 5.2h-14.2zm7 29.1h7.2c3.1 0 5.6-1 7.6-3.1 1.9-2.1 2.9-4.8 2.9-8.1s-1-6-2.9-8c-1.9-2.1-4.5-3.1-7.6-3.1h-7.2z"/><path d="m365.4 37.2c-1.1 0-2-.4-2.8-1.2s-1.2-1.7-1.2-2.8.4-2 1.2-2.9c.8-.8 1.7-1.2 2.8-1.2s2.1.4 2.9 1.2 1.2 1.8 1.2 2.9-.4 2-1.2 2.8c-.9.8-1.8 1.2-2.9 1.2zm3.3 28.6h-6.6v-25.6h6.6z"/><path d="m380.6 47.5c0 1.1 1.6 2 4.7 2.8 1.1.2 2.1.5 3 .8s1.8.8 2.7 1.4 1.6 1.4 2.1 2.4.8 2.1.8 3.4c0 2.6-1 4.7-3 6.1s-4.4 2.1-7.3 2.1c-5.3 0-8.8-2-10.8-6.1l5.7-3.2c.8 2.2 2.5 3.3 5 3.3 2.4 0 3.5-.7 3.5-2.2 0-1.1-1.6-2-4.7-2.8-1.2-.3-2.2-.6-3-.9s-1.7-.8-2.7-1.4-1.7-1.4-2.2-2.3-.7-2-.7-3.3c0-2.5.9-4.5 2.8-5.9 1.9-1.5 4.2-2.2 7-2.2 2.1 0 4 .5 5.7 1.4s3.1 2.3 4 4l-5.6 3.1c-.8-1.7-2.2-2.6-4.1-2.6-.9 0-1.6.2-2.1.6s-.8.9-.8 1.5z"/><path d="m413.2 39.5c3.4 0 6.4 1.3 8.8 3.9 2.5 2.6 3.7 5.8 3.7 9.6s-1.2 7-3.7 9.6c-2.4 2.6-5.3 3.9-8.8 3.9-3.6 0-6.3-1.2-8.3-3.7v13.3h-6.6v-35.9h6.6v3c2-2.4 4.7-3.7 8.3-3.7zm-6.3 18.8c1.3 1.3 3 2 5.1 2s3.7-.7 5.1-2c1.4-1.4 2-3.1 2-5.2s-.7-3.8-2-5.2-3-2-5.1-2-3.7.7-5.1 2c-1.3 1.3-2 3.1-2 5.2s.7 3.8 2 5.2z"/><path d="m437 65.8h-6.6v-37.3h6.6z"/><path d="m462.5 43.3v-3h6.6v25.6h-6.6v-3c-2 2.5-4.8 3.7-8.3 3.7-3.4 0-6.3-1.3-8.8-3.9-2.4-2.6-3.6-5.8-3.6-9.6s1.2-6.9 3.6-9.6c2.5-2.6 5.4-3.9 8.8-3.9 3.5-.1 6.3 1.2 8.3 3.7zm-12.2 15c1.3 1.3 3 2 5.1 2s3.7-.7 5.1-2c1.4-1.4 2-3.1 2-5.2s-.7-3.8-2-5.2-3-2-5.1-2-3.7.7-5.1 2c-1.3 1.3-2 3.1-2 5.2s.7 3.8 2 5.2z"/><path d="m497.7 40.2v25c0 3.9-1.1 6.9-3.3 9.1s-5.1 3.3-8.8 3.3c-2.3 0-4.4-.4-6.5-1.3-2-.9-3.8-2-5.3-3.4l3.6-4.8c1.3 1.1 2.5 1.9 3.6 2.5s2.4.8 3.8.8c1.8 0 3.2-.5 4.3-1.4s1.6-2.3 1.6-4.2v-3.8c-1.9 1.8-4.2 2.7-7 2.7-2.9 0-5.2-.9-6.9-2.8s-2.6-4.4-2.6-7.4v-14.3h6.9v13.3c0 1.5.4 2.7 1.3 3.6s2 1.4 3.4 1.4 2.6-.5 3.5-1.4 1.3-2.1 1.3-3.6v-13.3z"/><path d="m308.3 40.2v25c0 3.9-1.1 6.9-3.3 9.1s-5.1 3.3-8.8 3.3c-2.3 0-4.4-.4-6.5-1.3-2-.9-3.8-2-5.3-3.4l3.6-4.8c1.3 1.1 2.5 1.9 3.6 2.5s2.4.8 3.8.8c1.8 0 3.2-.5 4.3-1.4s1.6-2.3 1.6-4.2v-3.8c-1.9 1.8-4.2 2.7-7 2.7-2.9 0-5.2-.9-6.9-2.8s-2.6-4.4-2.6-7.4v-14.3h6.9v13.3c0 1.5.4 2.7 1.3 3.6s2 1.4 3.4 1.4 2.6-.5 3.5-1.4 1.3-2.1 1.3-3.6v-13.3z"/></g></svg>